<svg xmlns="http://www.w3.org/2000/svg" width="72" height="72" viewBox="0 0 72 72">
  <g fill="none" fill-rule="evenodd" stroke="#F3F5FA" stroke-linecap="round" stroke-linejoin="round" stroke-width="2">
    <path d="M17,45 L26,45 L37,49 L46,49 C47.656,49 49,50.343 49,52 C49,53.657 47.656,55 46,55 L35,55 C33.344,55 32,56.343 32,58"/>
    <path d="M48 54L64 49C65.656 49 67 50.343 67 52 67 52.998 66 54 66 54L41 67 39 67 22 61 17 61M14 59L12 59M9 59L7 59"/>
    <path d="M4 43L16 43C16.553 43 17 43.448 17 44L17 62C17 62.553 16.553 63 16 63L4 63M18 37L66 37"/>
    <polyline points="39 18 39 5 31 5 31 25"/>
    <polyline points="47 18 47 5 43 5 43 18"/>
    <polyline points="55 26 55 16 51 14 51 26"/>
    <path d="M21 37.0005C21 32.0295 25.029 28.0005 30 28.0005 34.971 28.0005 39 32.0295 39 37.0005M35 8L35 9M35 12L35 13M35 16L35 18M35 29L35 21 47 21 47 29C47 33.419 50.582 37 55 37 59.418 37 63 33 63 29L50 29M47 25L38 25M47 29L40 29"/>
    <polyline points="55 21 61 21 61 26"/>
    <path d="M27 37L27 32M30 33L32 33"/>
  </g>
</svg>
