<svg xmlns="http://www.w3.org/2000/svg" width="72" height="72" viewBox="0 0 72 72">
  <g fill="none" fill-rule="evenodd" stroke="#F3F5FA" stroke-linecap="round" stroke-linejoin="round" stroke-width="2">
    <path d="M41 10C41 12.762 38.762 15 36 15 33.238 15 31 12.762 31 10 31 7.238 33.238 5 36 5 38.762 5 41 7.238 41 10zM15 10C15 12.762 12.762 15 10 15 7.238 15 5 12.762 5 10 5 7.238 7.238 5 10 5 12.762 5 15 7.238 15 10zM47 33L47 25C47 21.687 44.313 19 41 19L31 19C27.687 19 25 21.687 25 25L25 33"/>
    <polygon points="17 40 55 40 55 36 17 36"/>
    <path d="M17 33L17 26C17 22.134 13.866 19 10 19L8 19C6.344 19 5 20.344 5 22L5 45C5 47.762 7.238 50 10 50L17 50 24 67 26 67C30 67 30 63 30 63L30 43M57 10C57 12.762 59.238 15 62 15 64.762 15 67 12.762 67 10 67 7.238 64.762 5 62 5 59.238 5 57 7.238 57 10zM55 33L55 26C55 22.134 58.134 19 62 19L64 19C65.656 19 67 20.344 67 22L67 45C67 47.762 64.762 50 62 50L55 50 48 67 46 67C42 67 42 63 42 63L42 43M36 43L36 68M35 23L37 23M35 27L37 27"/>
  </g>
</svg>
