<svg xmlns="http://www.w3.org/2000/svg" width="72" height="72" viewBox="0 0 72 72">
  <g fill="none" fill-rule="evenodd" stroke="#F3F5FA" stroke-linecap="round" stroke-linejoin="round" stroke-width="2">
    <polyline points="32 23 32 60 40 60 40 23"/>
    <path d="M40 13.0173755L40 8C40 5.791 38.209 4 36 4 33.791 4 32 5.791 32 8L32 13.0096247M29 60L14 60C10.687 60 8 62.687 8 66L64 66C64 62.687 61.313 60 58 60L43 60M36 7L36 9"/>
    <path d="M42 18C42 21.313 39.313 24 36 24 32.687 24 30 21.313 30 18 30 14.687 32.687 12 36 12 39.313 12 42 14.687 42 18zM61 20L65 20C66.104 20 67 19.104 67 18 67 16.896 66.104 16 65 16L42 16M42 20L55 20M11 20L7 20C5.896 20 5 19.104 5 18 5 16.896 5.896 16 7 16L30 16M30 20L17 20M5 38L23 38C23 42.971 18.971 47 14 47 9.029 47 5 42.971 5 38zM6 38L14 20M14 20L22 38M49 38L67 38C67 42.971 62.971 47 58 47 53.029 47 49 42.971 49 38zM50 38L58 20M58 20L66 38M35 56L37 56M35 52L37 52M35 48L37 48"/>
  </g>
</svg>
