<svg xmlns="http://www.w3.org/2000/svg" width="72" height="72" viewBox="0 0 72 72">
  <g fill="none" fill-rule="evenodd" stroke="#F3F5FA" stroke-linecap="round" stroke-linejoin="round" stroke-width="2">
    <path d="M16 36L11 36M56 36L61 36M52 43L55 43C57.2 43 59 44.8 59 47L59 61M20 43L17 43C14.8 43 13 44.8 13 47L13 61M52 29L55 29C57.2 29 59 27.2 59 25L59 11M20 29L16 29C13.8 29 12 27.2 12 25L12 11M31 59L31 68M21 56L21 68M41 60L41 68M51 52L51 64M31 16L31 4M21 17L21 8M41 20L41 12M51 17L51 8M52 36L53 36M20 36L19 36M28 36L30 36M42 36L44 36"/>
    <polyline points="33 40 38 40 38 37 34 35 34 32 39 32"/>
    <path d="M36 40L36 43M36 29L36 32M51 67L51 68M51 4L51 5M41 4L41 5M41 8L41 9M21 4L21 5M21 48L21 49M21 52L21 53M41 57L41 56M41 53L41 52M51 49L51 48M31 20L31 19M49 36C49 43.18 43.18 49 36 49 28.82 49 23 43.18 23 36 23 28.82 28.82 23 36 23 43.18 23 49 28.82 49 36zM11 36C11 37.656 9.656 39 8 39 6.344 39 5 37.656 5 36 5 34.344 6.344 33 8 33 9.656 33 11 34.344 11 36zM61 36C61 37.656 62.344 39 64 39 65.656 39 67 37.656 67 36 67 34.344 65.656 33 64 33 62.344 33 61 34.344 61 36zM62 64C62 65.656 60.656 67 59 67 57.344 67 56 65.656 56 64 56 62.344 57.344 61 59 61 60.656 61 62 62.344 62 64zM10 64C10 65.656 11.344 67 13 67 14.656 67 16 65.656 16 64 16 62.344 14.656 61 13 61 11.344 61 10 62.344 10 64zM62 8C62 6.344 60.656 5 59 5 57.344 5 56 6.344 56 8 56 9.656 57.344 11 59 11 60.656 11 62 9.656 62 8zM9 8C9 6.344 10.344 5 12 5 13.656 5 15 6.344 15 8 15 9.656 13.656 11 12 11 10.344 11 9 9.656 9 8zM34 56C34 57.656 32.656 59 31 59 29.344 59 28 57.656 28 56 28 54.344 29.344 53 31 53 32.656 53 34 54.344 34 56zM24 20C24 18.344 22.656 17 21 17 19.344 17 18 18.344 18 20 18 21.656 19.344 23 21 23 22.656 23 24 21.656 24 20zM54 20C54 18.344 52.656 17 51 17 49.344 17 48 18.344 48 20 48 21.656 49.344 23 51 23 52.656 23 54 21.656 54 20z"/>
  </g>
</svg>
