<svg xmlns="http://www.w3.org/2000/svg" width="72" height="72" viewBox="0 0 72 72">
  <g fill="none" fill-rule="evenodd" stroke="#F3F5FA" stroke-linecap="round" stroke-linejoin="round" stroke-width="2">
    <path d="M32 59L25 59M45 59L35 59M35 55L45 55M25 55L32 55"/>
    <polyline points="23 43 22.998 43 25 51 45 51 47 43"/>
    <path d="M25.9961,44.9775 C18.9031,41.6065 14.0001,34.3765 14.0001,26.0005 C14.0001,14.4025 23.4021,4.9995 35.0001,4.9995 C46.5981,4.9995 56.0001,14.4025 56.0001,26.0005 C56.0001,34.3765 51.0961,41.6095 44.0001,44.9805"/>
    <polyline points="32 30 37 30 37 27 33 25 33 22 38 22"/>
    <path d="M35 30L35 33M35 19L35 22M19 67L3 67M33 67L22 67"/>
    <polyline points="41 63 41 67 67 67"/>
    <polyline points="32 63 27 63 27 51"/>
    <polyline points="35 63 43 63 43 51"/>
    <path d="M29 63L29 67M38 67L36 67M48 59L49 59M48 55L49 55M21 55L22 55M21 59L22 59M29 30L28 30M41 22L42 22M41 26L42 26M28 26L29 26M45 22L46 22M24 30L25 30M35 48L35 43C25.611 43 18 35.39 18 26.001 18 16.611 25.611 9.001 35 9.001 44.389 9.001 52 16.611 52 26.001 52 32.755 48.061 38.59 42.354 41.332"/>
  </g>
</svg>
