<svg xmlns="http://www.w3.org/2000/svg" width="72" height="72" viewBox="0 0 72 72">
  <g fill="none" fill-rule="evenodd" stroke="#F3F5FA" stroke-linecap="round" stroke-width="2">
    <path stroke-linejoin="round" d="M19 43L19 66M12 66L12 49M20 12C20 14.209 18.209 16 16 16 13.791 16 12 14.209 12 12 12 9.791 13.791 8 16 8 18.209 8 20 9.791 20 12z"/>
    <polyline stroke-linejoin="round" points="17 28 28 28 34 15"/>
    <path d="M28,66 L63,66"/>
    <path stroke-linejoin="round" d="M7 66L25 66M29.9525075 14.3604961L26 23 22 23 19 20 13 20C11.344 20 10 21.344 10 23L10 49 13 49 22 40 21.9525075 31.3604961"/>
    <polygon stroke-linejoin="round" points="24 14 28 14 55 18 57 20 63 20 63 4 57 4 55 6 28 10 24 10"/>
    <path stroke-linejoin="round" d="M28 10L28 14M59 17L59 20M59 4L59 14M55 6L55 18M52 12L51 12M48 12L47 12M44 12L43 12"/>
    <polyline stroke-linejoin="round" points="33 66 33 54 37 54 37 66"/>
    <polyline stroke-linejoin="round" points="41 66 41 50 45 50 45 66"/>
    <polyline stroke-linejoin="round" points="49 66 49 44 53 44 53 66"/>
    <polyline stroke-linejoin="round" points="57 66 57 42 61 42 61 66"/>
    <polyline stroke-linejoin="round" points="63 30 54 39 46 39 36 49 28 49"/>
    <polyline stroke-linejoin="round" points="63 36 63 30 57 30"/>
  </g>
</svg>
