<svg xmlns="http://www.w3.org/2000/svg" width="72" height="72" viewBox="0 0 72 72">
  <g fill="none" fill-rule="evenodd" stroke="#F3F5FA" stroke-linecap="round" stroke-linejoin="round" stroke-width="2">
    <path d="M48 62L39 64M64 39L62 47M36 53L36 61M39 36C39 37.656 37.656 39 36 39 34.344 39 33 37.656 33 36 33 34.344 34.344 33 36 33 37.656 33 39 34.344 39 36zM39 22C39 23.656 37.656 25 36 25 34.344 25 33 23.656 33 22 33 20.344 34.344 19 36 19 37.656 19 39 20.344 39 22zM39 8C39 9.656 37.656 11 36 11 34.344 11 33 9.656 33 8 33 6.344 34.344 5 36 5 37.656 5 39 6.344 39 8zM39 50C39 51.656 37.656 53 36 53 34.344 53 33 51.656 33 50 33 48.344 34.344 47 36 47 37.656 47 39 48.344 39 50zM39 64C39 65.656 37.656 67 36 67 34.344 67 33 65.656 33 64 33 62.344 34.344 61 36 61 37.656 61 39 62.344 39 64zM26 28C26 29.656 24.656 31 23 31 21.344 31 20 29.656 20 28 20 26.344 21.344 25 23 25 24.656 25 26 26.344 26 28zM52 28C52 29.656 50.656 31 49 31 47.344 31 46 29.656 46 28 46 26.344 47.344 25 49 25 50.656 25 52 26.344 52 28zM64 50C64 48.344 62.656 47 61 47 59.344 47 58 48.344 58 50 58 51.656 59.344 53 61 53 62.656 53 64 51.656 64 50zM54 61C54 59.344 52.656 58 51 58 49.344 58 48 59.344 48 61 48 62.656 49.344 64 51 64 52.656 64 54 62.656 54 61zM26 44C26 45.656 24.656 47 23 47 21.344 47 20 45.656 20 44 20 42.344 21.344 41 23 41 24.656 41 26 42.344 26 44zM52 44C52 45.656 50.656 47 49 47 47.344 47 46 45.656 46 44 46 42.344 47.344 41 49 41 50.656 41 52 42.344 52 44zM25 19L26 19M25 53L26 53M45 53L46 53M16 36L17 36M45 19L46 19M54 36L55 36M53 59L59 52M48 10L39 8M64 33L62 25M64 22C64 23.656 62.656 25 61 25 59.344 25 58 23.656 58 22 58 20.344 59.344 19 61 19 62.656 19 64 20.344 64 22zM54 11C54 12.656 52.656 14 51 14 49.344 14 48 12.656 48 11 48 9.344 49.344 8 51 8 52.656 8 54 9.344 54 11zM67 36C67 34.344 65.656 33 64 33 62.344 33 61 34.344 61 36 61 37.656 62.344 39 64 39 65.656 39 67 37.656 67 36zM53 13L59 20M24 62L33 64M8 39L10 47M8 50C8 48.344 9.344 47 11 47 12.656 47 14 48.344 14 50 14 51.656 12.656 53 11 53 9.344 53 8 51.656 8 50zM18 61C18 59.344 19.344 58 21 58 22.656 58 24 59.344 24 61 24 62.656 22.656 64 21 64 19.344 64 18 62.656 18 61zM19 59L13 52M24 10L33 8M8 33L10 25M8 22C8 23.656 9.344 25 11 25 12.656 25 14 23.656 14 22 14 20.344 12.656 19 11 19 9.344 19 8 20.344 8 22zM18 11C18 12.656 19.344 14 21 14 22.656 14 24 12.656 24 11 24 9.344 22.656 8 21 8 19.344 8 18 9.344 18 11zM5 36C5 34.344 6.344 33 8 33 9.656 33 11 34.344 11 36 11 37.656 9.656 39 8 39 6.344 39 5 37.656 5 36zM19 13L13 20M33 50L26 46M23 41L23 31M26 30L33 35M39 35L46 30M36 19L36 11M39 23L46 26M39 50L46 46M52 46L58 49M20 46L14 49M49 31L49 41M20 27L14 24"/>
  </g>
</svg>
