<svg xmlns="http://www.w3.org/2000/svg" width="44" height="44" viewBox="0 0 44 44">
  <g fill="none" fill-rule="evenodd" transform="translate(2 2)">
    <path fill="#F3F5FA" stroke="#F3F5FA" stroke-width="2" d="M20.5,16.1862915 L26.0049693,10.6813222 C27.1067943,9.57949717 28.8932057,9.57949717 29.9950307,10.6813222 C31.0968557,11.7831472 31.0968557,13.5695585 29.9950307,14.6713836 L24.6664143,20 L29.9950307,25.3286164 C31.0968557,26.4304415 31.0968557,28.2168528 29.9950307,29.3186778 C28.8932057,30.4205028 27.1067943,30.4205028 26.0049693,29.3186778 L20.5,23.8137085 L14.9950307,29.3186778 C13.8932057,30.4205028 12.1067943,30.4205028 11.0049693,29.3186778 C9.90314428,28.2168528 9.90314428,26.4304415 11.0049693,25.3286164 L16.3335857,20 L11.0049693,14.6713836 C9.90314428,13.5695585 9.90314428,11.7831472 11.0049693,10.6813222 C12.1067943,9.57949717 13.8932057,9.57949717 14.9950307,10.6813222 L20.5,16.1862915 Z M20,39 C30.4934102,39 39,30.4934102 39,20 C39,9.50658975 30.4934102,1 20,1 C9.50658975,1 1,9.50658975 1,20 C1,30.4934102 9.50658975,39 20,39 Z"/>
  </g>
</svg>
