<svg xmlns="http://www.w3.org/2000/svg" xmlns:xlink="http://www.w3.org/1999/xlink" width="126" height="25" viewBox="0 0 126 25">
  <defs>
    <polygon id="logo-a" points="0 .088 24.664 .088 24.664 24.715 0 24.715"/>
    <polygon id="logo-c" points="0 .118 14.676 .118 14.676 3.926 0 3.926"/>
    <polygon id="logo-e" points="0 .157 16.571 .157 16.571 7.736 0 7.736"/>
  </defs>
  <g fill="none" fill-rule="evenodd">
    <mask id="logo-b" fill="#fff">
      <use xlink:href="#logo-a"/>
    </mask>
    <path fill="#F60" d="M22.1573707,13.2178879 C22.4181466,12.3118534 22.5659914,11.3584052 22.5659914,10.368319 C22.5659914,4.69073276 17.9638362,0.0881465517 12.28625,0.0881465517 L4.31034483e-05,0.0881465517 L4.31034483e-05,4.37737069 L3.94400862,4.37737069 C3.93711207,4.38728448 3.92978448,4.39633621 3.92288793,4.40581897 L12.28625,4.40581897 L12.28625,4.42435345 C14.5914224,4.42435345 16.5707328,5.72823276 17.5922845,7.62435345 C17.9556466,8.29892241 18.1892672,9.04461207 18.2728879,9.84288793 C18.2953017,10.0532328 18.336681,10.2579741 18.336681,10.4743534 C18.336681,11.8092672 17.8905603,13.0325431 17.1578017,14.0334052 C18.3103879,14.8834052 19.2349569,16.0221983 19.8168534,17.3493534 C20.2599569,18.3596983 20.5099569,19.4743534 20.5099569,20.6480603 C20.5099569,21.8157328 20.2629741,22.9252155 19.824181,23.93125 C19.7065086,24.2010776 19.5728879,24.4614224 19.4280603,24.7153017 L23.9629741,24.7153017 C24.4090948,23.4403017 24.6638362,22.0752155 24.6638362,20.6480603 C24.6638362,17.8540948 23.72375,15.2855603 22.1573707,13.2178879" mask="url(#logo-b)"/>
    <g transform="translate(0 8)">
      <mask id="logo-d" fill="#fff">
        <use xlink:href="#logo-c"/>
      </mask>
      <path fill="#F60" d="M12.5738824,3.926 L12.5752059,3.926 C13.1549118,3.926 13.6799118,3.7132 14.0602059,3.3688 C14.0774118,3.3528 14.0906471,3.3332 14.1078529,3.3168 C14.1824118,3.244 14.2552059,3.1696 14.3165294,3.0872 C14.3544706,3.036 14.3822647,2.978 14.4149118,2.9232 C14.4466765,2.87 14.4841765,2.82 14.5106471,2.764 C14.5327059,2.7164 14.5437353,2.6644 14.5618235,2.6148 C14.6297647,2.4276 14.6760882,2.2312 14.6760882,2.0228 C14.6765294,1.4972 14.4413824,1.0208 14.0615294,0.676 C13.9662353,0.5896 13.8625588,0.5116 13.7509412,0.4432 C13.7094706,0.4176 13.6671176,0.394 13.6234412,0.3712 C13.3194706,0.2124 12.9678529,0.1212 12.5919706,0.1184 C12.5866765,0.1184 12.5818235,0.1176 12.5769706,0.1176 L12.5752059,0.1176 L-8.82352941e-05,0.1176 L-8.82352941e-05,3.926 L12.5738824,3.926 Z" mask="url(#logo-d)"/>
    </g>
    <g transform="translate(0 16)">
      <mask id="logo-f" fill="#fff">
        <use xlink:href="#logo-e"/>
      </mask>
      <path fill="#F60" d="M16.0187077,2.09784 C15.5278872,1.30304 14.7428359,0.69144 13.7899641,0.38504 C13.5231949,0.29944 13.2464,0.24024 12.9582718,0.20624 C12.7812974,0.18504 12.6073744,0.15664 12.4247333,0.15664 L12.1862974,0.15664 L-8.71794872e-05,0.15664 L-8.71794872e-05,3.95984 L-8.71794872e-05,7.73584 L12.0991179,7.73584 L12.2460154,7.73584 L12.4247333,7.73584 L12.6034513,7.73584 L12.7503487,7.73584 C13.4482205,7.68504 14.0972718,7.48824 14.6552205,7.15984 C14.7349897,7.11264 14.8095282,7.06024 14.8853744,7.00824 C15.902759,6.31504 16.5709897,5.21384 16.5709897,3.96144 C16.5709897,3.70224 16.5413487,3.44904 16.4877333,3.20464 C16.4001179,2.80664 16.2301179,2.44024 16.0187077,2.09784" mask="url(#logo-f)"/>
    </g>
    <polygon fill="#F60" points="28 25 32 25 32 5 28 5"/>
    <polygon fill="#F60" points="48 8.68 43.649 8.68 43.649 25 39.378 25 39.378 8.68 35 8.68 35 5 39.378 5 43.649 5 48 5"/>
    <path fill="#FFF" d="M80.9591614,19.0613059 L78,13.1489344 L75.0687923,19.0613059 L80.9591614,19.0613059 Z M88,25 L83.917886,25 L82.6302686,22.3902522 L73.3972483,22.3902522 L72.082114,25 L68,25 L78,5 L88,25 Z"/>
    <polygon fill="#FFF" points="89 25 93 25 93 5 89 5"/>
    <path fill="#FFF" d="M108.012882,16.1580305 C108.890272,17.8835339 108.890272,19.8514244 107.903153,21.7655943 C106.696578,23.8138507 104.530427,25 101.788092,25 C101.130159,25 100.36206,25 99.7036897,24.7846881 C96.3038587,24.1374632 94.5486419,21.3607564 94,19.8514244 L97.6472663,18.5574042 C97.6472663,18.5574042 98.3602821,21.0375737 101.349178,21.1450147 L101.458907,21.1450147 L101.568635,21.1450147 C102.55619,21.1450147 103.433143,20.8222618 103.872056,20.1750368 C104.31097,19.5007367 104.31097,18.5307588 104.091513,18.0992755 C103.762328,17.3446095 102.775647,16.5895138 101.458907,16.3737721 C98.908924,16.0501596 96.9617918,15.079752 95.7552168,13.3813237 C94.7680986,12.0873035 94.4389135,10.3622299 94.7680986,8.82539293 C95.0972837,7.34270629 95.9746736,6.15698674 97.1812485,5.2944499 C98.4700105,4.4314833 100.032875,4 101.89782,4 C104.201242,4 106.038208,4.8629666 107.573968,6.58804028 C108.561524,7.85541503 109,9.04113458 109,9.28395138 L105.298088,10.4701007 C105.298088,10.4701007 104.640155,8.28646857 101.89782,7.88206041 C100.992452,7.7475442 99.5943985,8.20567289 99.2101306,9.31059676 C98.5521975,11.2784872 100.553975,12.3571955 102.281651,12.6266577 C104.777425,13.0310658 106.916035,14.1364194 108.012882,16.1580305"/>
    <polygon fill="#FFF" points="126 21.293 126 25 111 25 111 5 126 5 126 8.68 115.329 8.68 115.302 8.68 115.302 13.16 123.196 13.16 123.196 16.76 115.302 16.76 115.302 21.293 115.329 21.293"/>
    <path fill="#FFF" d="M53.3229605,9.000934 L58.755675,9.000934 C59.8956473,9.000934 60.8192745,9.89630432 60.8192745,11.001401 C60.8192745,12.1060731 59.8956473,13.001868 58.755675,13.001868 L53.3229605,13.001868 L53.3229605,9.000934 Z M63.1443274,15.2332888 C64.2580229,14.1481458 64.9464733,12.6533147 64.9464733,11.001401 C64.9464733,7.68696003 62.1751539,5 58.755675,5 L53.3229605,5 L49,5 L49,9.000934 L49,13.001868 L49,17.002802 L49,25 L53.3229605,25 L53.3229605,17.002802 L56.6933895,17.002802 L56.6933895,17.0257276 C60.1106786,17.0257276 62.8806842,19.711414 62.8806842,23.0233076 C62.8806842,23.717018 62.753242,24.3801609 62.5294518,25 L66.7981071,25 C66.9299287,24.3610563 67,23.7000361 67,23.0233076 C67,19.8727419 65.4943432,17.0643614 63.1443274,15.2332888 Z"/>
  </g>
</svg>
