<svg xmlns="http://www.w3.org/2000/svg" xmlns:xlink="http://www.w3.org/1999/xlink" width="42" height="43" viewBox="0 0 42 43">
  <defs>
    <polygon id="logo-br-a" points="0 .627 41.435 .627 41.435 42 0 42"/>
    <polygon id="logo-br-c" points="0 .691 24.089 .691 24.089 7.586 0 7.586"/>
    <polygon id="logo-br-e" points="0 .038 27.529 .038 27.529 13.758 0 13.758"/>
  </defs>
  <g fill="none" fill-rule="evenodd">
    <g transform="translate(0 .097)">
      <mask id="logo-br-b" fill="#fff">
        <use xlink:href="#logo-br-a"/>
      </mask>
      <path fill="#F60" d="M37.2243828,22.6839828 C37.6624862,21.162569 37.9108655,19.5600517 37.9108655,17.8967069 C37.9108655,8.35908621 30.1792448,0.626741379 20.6409,0.626741379 L7.24137931e-05,0.626741379 L7.24137931e-05,7.83263793 L6.62593448,7.83263793 C6.61434828,7.84856897 6.60203793,7.86377586 6.59045172,7.88043103 L20.6409,7.88043103 L20.6409,7.91084483 C24.5135897,7.91084483 27.838831,10.1013621 29.5550379,13.2868448 C30.1654862,14.4208448 30.557969,15.6736034 30.6984517,17.0139828 C30.7361069,17.3673621 30.8056241,17.7120517 30.8056241,18.075569 C30.8056241,20.3182241 30.0561414,22.3733276 28.8251069,24.0547759 C30.7614517,25.4827759 32.3147276,27.3959483 33.2923138,29.6248448 C34.0367276,31.3229483 34.4567276,33.1948448 34.4567276,35.1666724 C34.4567276,37.1290862 34.0417966,38.9922931 33.3046241,40.6831552 C33.1069345,41.1357414 32.8824517,41.5738448 32.6391414,41.9996379 L40.2577966,41.9996379 C41.0072793,39.8576379 41.4352448,37.5650172 41.4352448,35.1666724 C41.4352448,30.4728103 39.8559,26.1583966 37.2243828,22.6839828" mask="url(#logo-br-b)"/>
    </g>
    <g transform="translate(0 13.856)">
      <mask id="logo-br-d" fill="#fff">
        <use xlink:href="#logo-br-c"/>
      </mask>
      <path fill="#F60" d="M20.6385103,7.58592414 L20.6406828,7.58592414 C21.5922,7.58592414 22.4539241,7.20068276 23.078131,6.57647586 C23.1063724,6.54751034 23.1280966,6.51202759 23.1563379,6.48233793 C23.2787172,6.35054483 23.3982,6.21657931 23.4988552,6.0674069 C23.561131,5.9739931 23.6067517,5.86971724 23.6603379,5.77051034 C23.7124759,5.6742 23.7740276,5.58368276 23.8174759,5.48157931 C23.8536828,5.39613103 23.8717862,5.30126897 23.9014759,5.2122 C24.0129931,4.87257931 24.0890276,4.51702759 24.0890276,4.14047586 C24.0897517,3.18823448 23.7037862,2.32651034 23.0803034,1.70230345 C22.9238897,1.54588966 22.7537172,1.40468276 22.5705103,1.28085517 C22.5024414,1.23451034 22.4329241,1.19106207 22.3612345,1.14978621 C21.8623034,0.862303448 21.2851655,0.697924138 20.6682,0.692855172 C20.6595103,0.692855172 20.6515448,0.690682759 20.6435793,0.690682759 L20.6406828,0.690682759 L-0.000144827586,0.690682759 L-0.000144827586,7.58592414 L20.6385103,7.58592414 Z" mask="url(#logo-br-d)"/>
    </g>
    <g transform="translate(0 28.339)">
      <mask id="logo-br-f" fill="#fff">
        <use xlink:href="#logo-br-e"/>
      </mask>
      <path fill="#F60" d="M26.6112,3.55225862 C25.7958207,2.11267241 24.4916483,1.00618966 22.9086828,0.450775862 C22.4655103,0.295810345 22.0056828,0.189362069 21.5270276,0.127086207 C21.2330276,0.0894310345 20.9440966,0.0380172414 20.6406828,0.0380172414 L20.2445793,0.0380172414 L-0.000144827586,0.0380172414 L-0.000144827586,6.92312069 L-0.000144827586,13.7582586 L20.0997517,13.7582586 L20.3437862,13.7582586 L20.6406828,13.7582586 L20.9375793,13.7582586 L21.1816138,13.7582586 C22.3409586,13.6670172 23.4192,13.3100172 24.3460966,12.7162241 C24.4786138,12.6307759 24.6024414,12.5359138 24.7284414,12.4417759 C26.4185793,11.1861207 27.5286828,9.19256897 27.5286828,6.9252931 C27.5286828,6.45605172 27.4794414,5.99839655 27.3903724,5.55522414 C27.2448207,4.8347069 26.9624069,4.17212069 26.6112,3.55225862" mask="url(#logo-br-f)"/>
    </g>
  </g>
</svg>
