<svg xmlns="http://www.w3.org/2000/svg" width="128" height="128" viewBox="0 0 128 128">
  <g fill="none" fill-rule="evenodd" stroke="#F3F5FA" stroke-linecap="round" stroke-width="2">
    <path stroke-linejoin="round" d="M100 127L100 81M110 11C110 16.524 105.524 21 100 21 94.476 21 90 16.524 90 11 90 5.476 94.476 1 100 1 105.524 1 110 5.476 110 11z"/>
    <path d="M64.3496 58.7812L79.9996 34.9992C79.9996 34.9992 83.9996 28.9992 91.9996 28.9992L107.9996 28.9992C115.7316 28.9992 121.9996 35.2672 121.9996 42.9992L121.9996 74.9992 113.9996 74.9992 113.9996 126.9992M100 35L100 39M100 43L100 47"/>
    <path stroke-linejoin="round" d="M28 127L28 81M17.789 11C17.789 16.524 22.265 21 27.789 21 33.313 21 37.789 16.524 37.789 11 37.789 5.476 33.313 1 27.789 1 22.265 1 17.789 5.476 17.789 11z"/>
    <path d="M70,67 L48,35 C48,35 44,29 35.79,29 L19.79,29 C12.056,29 6,35.268 6,43 L6,75 L14,75 L14,127"/>
    <polyline stroke-linejoin="round" points="42 127 42 51 64 73 86 51 86 127"/>
  </g>
</svg>
