<svg xmlns="http://www.w3.org/2000/svg" width="128" height="128" viewBox="0 0 128 128">
  <g fill="none" fill-rule="evenodd" stroke="#F3F5FA" stroke-linecap="round" stroke-linejoin="round" stroke-width="2">
    <path d="M86 127C86 95 62 93 62 65M50.0366146 14.4179757C50.0366146 7.79197569 60 1 60 1L62 1 62 13C22 13 16 53.596 16 79L16 95"/>
    <polyline points="80 17 118 3 120 3 120 5 88 27"/>
    <path d="M68 13C80 13 87.996 27.996 87.996 27.996L110 67C110 71.418 106.418 75 102 75 102 75 84 59 66 59 57.164 59 50 51.836 50 43M78 35L76 35"/>
    <polyline points="10 121 20 121 20 115 12 111 12 105 22 105"/>
    <path d="M16 121L16 127M16 99L16 105"/>
  </g>
</svg>
